solid
  facet normal +1.0000000E+00 +0.0000000E+00 +1.1842378E-15
    outer loop      
      vertex   +2.5000000E+01 +2.0000000E+03 +1.5000000E+01
      vertex   +2.5000000E+01 +1.0000000E+03 +1.5000000E+01
      vertex   +2.5000000E+01 +1.0000000E+03 -1.5000000E+01
    endloop
  endfacet
  facet normal +1.0000000E+00 +0.0000000E+00 +1.1842378E-15
    outer loop      
      vertex   +2.5000000E+01 +0.0000000E+00 -1.5000000E+01
      vertex   +2.5000000E+01 +1.0000000E+03 -1.5000000E+01
      vertex   +2.5000000E+01 +1.0000000E+03 +1.5000000E+01
    endloop
  endfacet
  facet normal +1.0000000E+00 +0.0000000E+00 +1.1842378E-15
    outer loop      
      vertex   +2.5000000E+01 +1.0000000E+03 +1.5000000E+01
      vertex   +2.5000000E+01 +0.0000000E+00 +1.5000000E+01
      vertex   +2.5000000E+01 +0.0000000E+00 -1.5000000E+01
    endloop
  endfacet
  facet normal +1.0000000E+00 +0.0000000E+00 +1.1842378E-15
    outer loop      
      vertex   +2.5000000E+01 +1.0000000E+03 -1.5000000E+01
      vertex   +2.5000000E+01 +2.0000000E+03 -1.5000000E+01
      vertex   +2.5000000E+01 +2.0000000E+03 +1.5000000E+01
    endloop
  endfacet
  facet normal +0.0000000E+00 +0.0000000E+00 -1.0000000E+00
    outer loop      
      vertex   +2.5000000E+01 +2.0000000E+03 -1.5000000E+01
      vertex   +2.5000000E+01 +1.0000000E+03 -1.5000000E+01
      vertex   -2.5000000E+01 +1.0000000E+03 -1.5000000E+01
    endloop
  endfacet
  facet normal +0.0000000E+00 +0.0000000E+00 -1.0000000E+00
    outer loop      
      vertex   -2.5000000E+01 +0.0000000E+00 -1.5000000E+01
      vertex   -2.5000000E+01 +1.0000000E+03 -1.5000000E+01
      vertex   +2.5000000E+01 +1.0000000E+03 -1.5000000E+01
    endloop
  endfacet
  facet normal +0.0000000E+00 +0.0000000E+00 -1.0000000E+00
    outer loop      
      vertex   +2.5000000E+01 +1.0000000E+03 -1.5000000E+01
      vertex   +2.5000000E+01 +0.0000000E+00 -1.5000000E+01
      vertex   -2.5000000E+01 +0.0000000E+00 -1.5000000E+01
    endloop
  endfacet
  facet normal +0.0000000E+00 +0.0000000E+00 -1.0000000E+00
    outer loop      
      vertex   -2.5000000E+01 +1.0000000E+03 -1.5000000E+01
      vertex   -2.5000000E+01 +2.0000000E+03 -1.5000000E+01
      vertex   +2.5000000E+01 +2.0000000E+03 -1.5000000E+01
    endloop
  endfacet
  facet normal -1.0000000E+00 +2.2026824E-16 -9.4739031E-16
    outer loop      
      vertex   -2.5000000E+01 +2.0000000E+03 -1.5000000E+01
      vertex   -2.5000000E+01 +1.0000000E+03 -1.5000000E+01
      vertex   -2.5000000E+01 +1.0000000E+03 +1.5000000E+01
    endloop
  endfacet
  facet normal -1.0000000E+00 +0.0000000E+00 -9.4739031E-16
    outer loop      
      vertex   -2.5000000E+01 +0.0000000E+00 +1.5000000E+01
      vertex   -2.5000000E+01 +1.0000000E+03 +1.5000000E+01
      vertex   -2.5000000E+01 +1.0000000E+03 -1.5000000E+01
    endloop
  endfacet
  facet normal -1.0000000E+00 -2.2026824E-16 -8.2896652E-15
    outer loop      
      vertex   -2.5000000E+01 +1.0000000E+03 -1.5000000E+01
      vertex   -2.5000000E+01 +0.0000000E+00 -1.5000000E+01
      vertex   -2.5000000E+01 +0.0000000E+00 +1.5000000E+01
    endloop
  endfacet
  facet normal -1.0000000E+00 +0.0000000E+00 -8.2896652E-15
    outer loop      
      vertex   -2.5000000E+01 +1.0000000E+03 +1.5000000E+01
      vertex   -2.5000000E+01 +2.0000000E+03 +1.5000000E+01
      vertex   -2.5000000E+01 +2.0000000E+03 -1.5000000E+01
    endloop
  endfacet
  facet normal +0.0000000E+00 +0.0000000E+00 +1.0000000E+00
    outer loop      
      vertex   -2.5000000E+01 +2.0000000E+03 +1.5000000E+01
      vertex   -2.5000000E+01 +1.0000000E+03 +1.5000000E+01
      vertex   +2.5000000E+01 +1.0000000E+03 +1.5000000E+01
    endloop
  endfacet
  facet normal +0.0000000E+00 +0.0000000E+00 +1.0000000E+00
    outer loop      
      vertex   +2.5000000E+01 +0.0000000E+00 +1.5000000E+01
      vertex   +2.5000000E+01 +1.0000000E+03 +1.5000000E+01
      vertex   -2.5000000E+01 +1.0000000E+03 +1.5000000E+01
    endloop
  endfacet
  facet normal +0.0000000E+00 +0.0000000E+00 +1.0000000E+00
    outer loop      
      vertex   -2.5000000E+01 +1.0000000E+03 +1.5000000E+01
      vertex   -2.5000000E+01 +0.0000000E+00 +1.5000000E+01
      vertex   +2.5000000E+01 +0.0000000E+00 +1.5000000E+01
    endloop
  endfacet
  facet normal +0.0000000E+00 +0.0000000E+00 +1.0000000E+00
    outer loop      
      vertex   +2.5000000E+01 +1.0000000E+03 +1.5000000E+01
      vertex   +2.5000000E+01 +2.0000000E+03 +1.5000000E+01
      vertex   -2.5000000E+01 +2.0000000E+03 +1.5000000E+01
    endloop
  endfacet
  facet normal +0.0000000E+00 +1.0000000E+00 +0.0000000E+00
    outer loop      
      vertex   +2.5000000E+01 +2.0000000E+03 +1.5000000E+01
      vertex   +2.5000000E+01 +2.0000000E+03 -1.5000000E+01
      vertex   -2.5000000E+01 +2.0000000E+03 -1.5000000E+01
    endloop
  endfacet
  facet normal +0.0000000E+00 +1.0000000E+00 +0.0000000E+00
    outer loop      
      vertex   -2.5000000E+01 +2.0000000E+03 -1.5000000E+01
      vertex   -2.5000000E+01 +2.0000000E+03 +1.5000000E+01
      vertex   +2.5000000E+01 +2.0000000E+03 +1.5000000E+01
    endloop
  endfacet
  facet normal +0.0000000E+00 -1.0000000E+00 +0.0000000E+00
    outer loop      
      vertex   +2.5000000E+01 +0.0000000E+00 +1.5000000E+01
      vertex   -2.5000000E+01 +0.0000000E+00 +1.5000000E+01
      vertex   -2.5000000E+01 +0.0000000E+00 -1.5000000E+01
    endloop
  endfacet
  facet normal +0.0000000E+00 -1.0000000E+00 +0.0000000E+00
    outer loop      
      vertex   -2.5000000E+01 +0.0000000E+00 -1.5000000E+01
      vertex   +2.5000000E+01 +0.0000000E+00 -1.5000000E+01
      vertex   +2.5000000E+01 +0.0000000E+00 +1.5000000E+01
    endloop
  endfacet
endsolid
