solid
  facet normal +1.0000000E+00 +0.0000000E+00 +1.1937117E-15
    outer loop      
      vertex   +2.5000000E+02 +2.0000000E+04 +5.0000000E+02
      vertex   +2.5000000E+02 +1.9000000E+04 +5.0000000E+02
      vertex   +2.5000000E+02 +1.9000000E+04 -5.0000000E+02
    endloop
  endfacet
  facet normal +1.0000000E+00 +0.0000000E+00 +1.1937117E-15
    outer loop      
      vertex   +2.5000000E+02 +1.8000000E+04 -5.0000000E+02
      vertex   +2.5000000E+02 +1.9000000E+04 -5.0000000E+02
      vertex   +2.5000000E+02 +1.9000000E+04 +5.0000000E+02
    endloop
  endfacet
  facet normal +1.0000000E+00 +0.0000000E+00 +1.1937117E-15
    outer loop      
      vertex   +2.5000000E+02 +1.9000000E+04 +5.0000000E+02
      vertex   +2.5000000E+02 +1.8000000E+04 +5.0000000E+02
      vertex   +2.5000000E+02 +1.8000000E+04 -5.0000000E+02
    endloop
  endfacet
  facet normal +1.0000000E+00 +0.0000000E+00 +1.1937117E-15
    outer loop      
      vertex   +2.5000000E+02 +1.7000000E+04 -5.0000000E+02
      vertex   +2.5000000E+02 +1.8000000E+04 -5.0000000E+02
      vertex   +2.5000000E+02 +1.8000000E+04 +5.0000000E+02
    endloop
  endfacet
  facet normal +1.0000000E+00 +0.0000000E+00 +1.1937117E-15
    outer loop      
      vertex   +2.5000000E+02 +1.8000000E+04 +5.0000000E+02
      vertex   +2.5000000E+02 +1.7000000E+04 +5.0000000E+02
      vertex   +2.5000000E+02 +1.7000000E+04 -5.0000000E+02
    endloop
  endfacet
  facet normal +1.0000000E+00 +0.0000000E+00 +1.1937117E-15
    outer loop      
      vertex   +2.5000000E+02 +1.6000000E+04 -5.0000000E+02
      vertex   +2.5000000E+02 +1.7000000E+04 -5.0000000E+02
      vertex   +2.5000000E+02 +1.7000000E+04 +5.0000000E+02
    endloop
  endfacet
  facet normal +1.0000000E+00 +0.0000000E+00 +1.1937117E-15
    outer loop      
      vertex   +2.5000000E+02 +1.7000000E+04 +5.0000000E+02
      vertex   +2.5000000E+02 +1.6000000E+04 +5.0000000E+02
      vertex   +2.5000000E+02 +1.6000000E+04 -5.0000000E+02
    endloop
  endfacet
  facet normal +1.0000000E+00 +0.0000000E+00 +1.1937117E-15
    outer loop      
      vertex   +2.5000000E+02 +1.5000000E+04 -5.0000000E+02
      vertex   +2.5000000E+02 +1.6000000E+04 -5.0000000E+02
      vertex   +2.5000000E+02 +1.6000000E+04 +5.0000000E+02
    endloop
  endfacet
  facet normal +1.0000000E+00 +0.0000000E+00 +1.1937117E-15
    outer loop      
      vertex   +2.5000000E+02 +1.6000000E+04 +5.0000000E+02
      vertex   +2.5000000E+02 +1.5000000E+04 +5.0000000E+02
      vertex   +2.5000000E+02 +1.5000000E+04 -5.0000000E+02
    endloop
  endfacet
  facet normal +1.0000000E+00 +0.0000000E+00 +1.1937117E-15
    outer loop      
      vertex   +2.5000000E+02 +1.4000000E+04 -5.0000000E+02
      vertex   +2.5000000E+02 +1.5000000E+04 -5.0000000E+02
      vertex   +2.5000000E+02 +1.5000000E+04 +5.0000000E+02
    endloop
  endfacet
  facet normal +1.0000000E+00 +0.0000000E+00 +1.1937117E-15
    outer loop      
      vertex   +2.5000000E+02 +1.5000000E+04 +5.0000000E+02
      vertex   +2.5000000E+02 +1.4000000E+04 +5.0000000E+02
      vertex   +2.5000000E+02 +1.4000000E+04 -5.0000000E+02
    endloop
  endfacet
  facet normal +1.0000000E+00 +0.0000000E+00 +1.1937117E-15
    outer loop      
      vertex   +2.5000000E+02 +1.3000000E+04 -5.0000000E+02
      vertex   +2.5000000E+02 +1.4000000E+04 -5.0000000E+02
      vertex   +2.5000000E+02 +1.4000000E+04 +5.0000000E+02
    endloop
  endfacet
  facet normal +1.0000000E+00 +0.0000000E+00 +1.1937117E-15
    outer loop      
      vertex   +2.5000000E+02 +1.4000000E+04 +5.0000000E+02
      vertex   +2.5000000E+02 +1.3000000E+04 +5.0000000E+02
      vertex   +2.5000000E+02 +1.3000000E+04 -5.0000000E+02
    endloop
  endfacet
  facet normal +1.0000000E+00 +0.0000000E+00 +1.1937117E-15
    outer loop      
      vertex   +2.5000000E+02 +1.2000000E+04 -5.0000000E+02
      vertex   +2.5000000E+02 +1.3000000E+04 -5.0000000E+02
      vertex   +2.5000000E+02 +1.3000000E+04 +5.0000000E+02
    endloop
  endfacet
  facet normal +1.0000000E+00 +0.0000000E+00 +1.1937117E-15
    outer loop      
      vertex   +2.5000000E+02 +1.3000000E+04 +5.0000000E+02
      vertex   +2.5000000E+02 +1.2000000E+04 +5.0000000E+02
      vertex   +2.5000000E+02 +1.2000000E+04 -5.0000000E+02
    endloop
  endfacet
  facet normal +1.0000000E+00 +0.0000000E+00 +1.1937117E-15
    outer loop      
      vertex   +2.5000000E+02 +1.1000000E+04 -5.0000000E+02
      vertex   +2.5000000E+02 +1.2000000E+04 -5.0000000E+02
      vertex   +2.5000000E+02 +1.2000000E+04 +5.0000000E+02
    endloop
  endfacet
  facet normal +1.0000000E+00 +0.0000000E+00 +1.1937117E-15
    outer loop      
      vertex   +2.5000000E+02 +1.2000000E+04 +5.0000000E+02
      vertex   +2.5000000E+02 +1.1000000E+04 +5.0000000E+02
      vertex   +2.5000000E+02 +1.1000000E+04 -5.0000000E+02
    endloop
  endfacet
  facet normal +1.0000000E+00 +0.0000000E+00 +1.1937117E-15
    outer loop      
      vertex   +2.5000000E+02 +1.0000000E+04 -5.0000000E+02
      vertex   +2.5000000E+02 +1.1000000E+04 -5.0000000E+02
      vertex   +2.5000000E+02 +1.1000000E+04 +5.0000000E+02
    endloop
  endfacet
  facet normal +1.0000000E+00 +0.0000000E+00 +1.1937117E-15
    outer loop      
      vertex   +2.5000000E+02 +1.1000000E+04 +5.0000000E+02
      vertex   +2.5000000E+02 +1.0000000E+04 +5.0000000E+02
      vertex   +2.5000000E+02 +1.0000000E+04 -5.0000000E+02
    endloop
  endfacet
  facet normal +1.0000000E+00 +0.0000000E+00 +1.1937117E-15
    outer loop      
      vertex   +2.5000000E+02 +9.0000000E+03 -5.0000000E+02
      vertex   +2.5000000E+02 +1.0000000E+04 -5.0000000E+02
      vertex   +2.5000000E+02 +1.0000000E+04 +5.0000000E+02
    endloop
  endfacet
  facet normal +1.0000000E+00 +0.0000000E+00 +1.1937117E-15
    outer loop      
      vertex   +2.5000000E+02 +1.0000000E+04 +5.0000000E+02
      vertex   +2.5000000E+02 +9.0000000E+03 +5.0000000E+02
      vertex   +2.5000000E+02 +9.0000000E+03 -5.0000000E+02
    endloop
  endfacet
  facet normal +1.0000000E+00 +0.0000000E+00 +1.1937117E-15
    outer loop      
      vertex   +2.5000000E+02 +8.0000000E+03 -5.0000000E+02
      vertex   +2.5000000E+02 +9.0000000E+03 -5.0000000E+02
      vertex   +2.5000000E+02 +9.0000000E+03 +5.0000000E+02
    endloop
  endfacet
  facet normal +1.0000000E+00 +0.0000000E+00 +1.1937117E-15
    outer loop      
      vertex   +2.5000000E+02 +9.0000000E+03 +5.0000000E+02
      vertex   +2.5000000E+02 +8.0000000E+03 +5.0000000E+02
      vertex   +2.5000000E+02 +8.0000000E+03 -5.0000000E+02
    endloop
  endfacet
  facet normal +1.0000000E+00 +0.0000000E+00 +1.1937117E-15
    outer loop      
      vertex   +2.5000000E+02 +7.0000000E+03 -5.0000000E+02
      vertex   +2.5000000E+02 +8.0000000E+03 -5.0000000E+02
      vertex   +2.5000000E+02 +8.0000000E+03 +5.0000000E+02
    endloop
  endfacet
  facet normal +1.0000000E+00 +0.0000000E+00 +1.1937117E-15
    outer loop      
      vertex   +2.5000000E+02 +8.0000000E+03 +5.0000000E+02
      vertex   +2.5000000E+02 +7.0000000E+03 +5.0000000E+02
      vertex   +2.5000000E+02 +7.0000000E+03 -5.0000000E+02
    endloop
  endfacet
  facet normal +1.0000000E+00 +0.0000000E+00 +1.1937117E-15
    outer loop      
      vertex   +2.5000000E+02 +6.0000000E+03 -5.0000000E+02
      vertex   +2.5000000E+02 +7.0000000E+03 -5.0000000E+02
      vertex   +2.5000000E+02 +7.0000000E+03 +5.0000000E+02
    endloop
  endfacet
  facet normal +1.0000000E+00 +0.0000000E+00 +1.1937117E-15
    outer loop      
      vertex   +2.5000000E+02 +7.0000000E+03 +5.0000000E+02
      vertex   +2.5000000E+02 +6.0000000E+03 +5.0000000E+02
      vertex   +2.5000000E+02 +6.0000000E+03 -5.0000000E+02
    endloop
  endfacet
  facet normal +1.0000000E+00 +0.0000000E+00 +1.1937117E-15
    outer loop      
      vertex   +2.5000000E+02 +5.0000000E+03 -5.0000000E+02
      vertex   +2.5000000E+02 +6.0000000E+03 -5.0000000E+02
      vertex   +2.5000000E+02 +6.0000000E+03 +5.0000000E+02
    endloop
  endfacet
  facet normal +1.0000000E+00 +0.0000000E+00 +1.1937117E-15
    outer loop      
      vertex   +2.5000000E+02 +6.0000000E+03 +5.0000000E+02
      vertex   +2.5000000E+02 +5.0000000E+03 +5.0000000E+02
      vertex   +2.5000000E+02 +5.0000000E+03 -5.0000000E+02
    endloop
  endfacet
  facet normal +1.0000000E+00 +0.0000000E+00 +1.1937117E-15
    outer loop      
      vertex   +2.5000000E+02 +4.0000000E+03 -5.0000000E+02
      vertex   +2.5000000E+02 +5.0000000E+03 -5.0000000E+02
      vertex   +2.5000000E+02 +5.0000000E+03 +5.0000000E+02
    endloop
  endfacet
  facet normal +1.0000000E+00 +0.0000000E+00 +1.1937117E-15
    outer loop      
      vertex   +2.5000000E+02 +5.0000000E+03 +5.0000000E+02
      vertex   +2.5000000E+02 +4.0000000E+03 +5.0000000E+02
      vertex   +2.5000000E+02 +4.0000000E+03 -5.0000000E+02
    endloop
  endfacet
  facet normal +1.0000000E+00 +0.0000000E+00 +1.1937117E-15
    outer loop      
      vertex   +2.5000000E+02 +3.0000000E+03 -5.0000000E+02
      vertex   +2.5000000E+02 +4.0000000E+03 -5.0000000E+02
      vertex   +2.5000000E+02 +4.0000000E+03 +5.0000000E+02
    endloop
  endfacet
  facet normal +1.0000000E+00 +0.0000000E+00 +1.1937117E-15
    outer loop      
      vertex   +2.5000000E+02 +4.0000000E+03 +5.0000000E+02
      vertex   +2.5000000E+02 +3.0000000E+03 +5.0000000E+02
      vertex   +2.5000000E+02 +3.0000000E+03 -5.0000000E+02
    endloop
  endfacet
  facet normal +1.0000000E+00 +0.0000000E+00 +1.1937117E-15
    outer loop      
      vertex   +2.5000000E+02 +2.0000000E+03 -5.0000000E+02
      vertex   +2.5000000E+02 +3.0000000E+03 -5.0000000E+02
      vertex   +2.5000000E+02 +3.0000000E+03 +5.0000000E+02
    endloop
  endfacet
  facet normal +1.0000000E+00 +0.0000000E+00 +1.1937117E-15
    outer loop      
      vertex   +2.5000000E+02 +3.0000000E+03 +5.0000000E+02
      vertex   +2.5000000E+02 +2.0000000E+03 +5.0000000E+02
      vertex   +2.5000000E+02 +2.0000000E+03 -5.0000000E+02
    endloop
  endfacet
  facet normal +1.0000000E+00 +0.0000000E+00 +1.1937117E-15
    outer loop      
      vertex   +2.5000000E+02 +1.0000000E+03 -5.0000000E+02
      vertex   +2.5000000E+02 +2.0000000E+03 -5.0000000E+02
      vertex   +2.5000000E+02 +2.0000000E+03 +5.0000000E+02
    endloop
  endfacet
  facet normal +1.0000000E+00 +0.0000000E+00 +1.1937117E-15
    outer loop      
      vertex   +2.5000000E+02 +2.0000000E+03 +5.0000000E+02
      vertex   +2.5000000E+02 +1.0000000E+03 +5.0000000E+02
      vertex   +2.5000000E+02 +1.0000000E+03 -5.0000000E+02
    endloop
  endfacet
  facet normal +1.0000000E-00 +0.0000000E+00 +1.1937117E-15
    outer loop      
      vertex   +2.5000000E+02 +0.0000000E+00 -5.0000000E+02
      vertex   +2.5000000E+02 +1.0000000E+03 -5.0000000E+02
      vertex   +2.5000000E+02 +1.0000000E+03 +5.0000000E+02
    endloop
  endfacet
  facet normal +1.0000000E-00 +0.0000000E+00 +1.1937117E-15
    outer loop      
      vertex   +2.5000000E+02 +1.0000000E+03 +5.0000000E+02
      vertex   +2.5000000E+02 +0.0000000E+00 +5.0000000E+02
      vertex   +2.5000000E+02 +0.0000000E+00 -5.0000000E+02
    endloop
  endfacet
  facet normal +1.0000000E+00 +0.0000000E+00 +1.1937117E-15
    outer loop      
      vertex   +2.5000000E+02 +1.9000000E+04 -5.0000000E+02
      vertex   +2.5000000E+02 +2.0000000E+04 -5.0000000E+02
      vertex   +2.5000000E+02 +2.0000000E+04 +5.0000000E+02
    endloop
  endfacet
  facet normal +0.0000000E+00 +0.0000000E+00 -1.0000000E+00
    outer loop      
      vertex   +2.5000000E+02 +2.0000000E+04 -5.0000000E+02
      vertex   +2.5000000E+02 +1.9000000E+04 -5.0000000E+02
      vertex   -2.5000000E+02 +1.9000000E+04 -5.0000000E+02
    endloop
  endfacet
  facet normal +0.0000000E+00 +0.0000000E+00 -1.0000000E+00
    outer loop      
      vertex   -2.5000000E+02 +1.8000000E+04 -5.0000000E+02
      vertex   -2.5000000E+02 +1.9000000E+04 -5.0000000E+02
      vertex   +2.5000000E+02 +1.9000000E+04 -5.0000000E+02
    endloop
  endfacet
  facet normal +0.0000000E+00 +0.0000000E+00 -1.0000000E+00
    outer loop      
      vertex   +2.5000000E+02 +1.9000000E+04 -5.0000000E+02
      vertex   +2.5000000E+02 +1.8000000E+04 -5.0000000E+02
      vertex   -2.5000000E+02 +1.8000000E+04 -5.0000000E+02
    endloop
  endfacet
  facet normal +0.0000000E+00 +0.0000000E+00 -1.0000000E+00
    outer loop      
      vertex   -2.5000000E+02 +1.7000000E+04 -5.0000000E+02
      vertex   -2.5000000E+02 +1.8000000E+04 -5.0000000E+02
      vertex   +2.5000000E+02 +1.8000000E+04 -5.0000000E+02
    endloop
  endfacet
  facet normal +0.0000000E+00 +0.0000000E+00 -1.0000000E+00
    outer loop      
      vertex   +2.5000000E+02 +1.8000000E+04 -5.0000000E+02
      vertex   +2.5000000E+02 +1.7000000E+04 -5.0000000E+02
      vertex   -2.5000000E+02 +1.7000000E+04 -5.0000000E+02
    endloop
  endfacet
  facet normal +0.0000000E+00 +0.0000000E+00 -1.0000000E+00
    outer loop      
      vertex   -2.5000000E+02 +1.6000000E+04 -5.0000000E+02
      vertex   -2.5000000E+02 +1.7000000E+04 -5.0000000E+02
      vertex   +2.5000000E+02 +1.7000000E+04 -5.0000000E+02
    endloop
  endfacet
  facet normal +0.0000000E+00 +0.0000000E+00 -1.0000000E+00
    outer loop      
      vertex   +2.5000000E+02 +1.7000000E+04 -5.0000000E+02
      vertex   +2.5000000E+02 +1.6000000E+04 -5.0000000E+02
      vertex   -2.5000000E+02 +1.6000000E+04 -5.0000000E+02
    endloop
  endfacet
  facet normal +0.0000000E+00 +0.0000000E+00 -1.0000000E+00
    outer loop      
      vertex   -2.5000000E+02 +1.5000000E+04 -5.0000000E+02
      vertex   -2.5000000E+02 +1.6000000E+04 -5.0000000E+02
      vertex   +2.5000000E+02 +1.6000000E+04 -5.0000000E+02
    endloop
  endfacet
  facet normal +0.0000000E+00 +0.0000000E+00 -1.0000000E+00
    outer loop      
      vertex   +2.5000000E+02 +1.6000000E+04 -5.0000000E+02
      vertex   +2.5000000E+02 +1.5000000E+04 -5.0000000E+02
      vertex   -2.5000000E+02 +1.5000000E+04 -5.0000000E+02
    endloop
  endfacet
  facet normal +0.0000000E+00 +0.0000000E+00 -1.0000000E+00
    outer loop      
      vertex   -2.5000000E+02 +1.4000000E+04 -5.0000000E+02
      vertex   -2.5000000E+02 +1.5000000E+04 -5.0000000E+02
      vertex   +2.5000000E+02 +1.5000000E+04 -5.0000000E+02
    endloop
  endfacet
  facet normal +0.0000000E+00 +0.0000000E+00 -1.0000000E+00
    outer loop      
      vertex   +2.5000000E+02 +1.5000000E+04 -5.0000000E+02
      vertex   +2.5000000E+02 +1.4000000E+04 -5.0000000E+02
      vertex   -2.5000000E+02 +1.4000000E+04 -5.0000000E+02
    endloop
  endfacet
  facet normal +0.0000000E+00 +0.0000000E+00 -1.0000000E+00
    outer loop      
      vertex   -2.5000000E+02 +1.3000000E+04 -5.0000000E+02
      vertex   -2.5000000E+02 +1.4000000E+04 -5.0000000E+02
      vertex   +2.5000000E+02 +1.4000000E+04 -5.0000000E+02
    endloop
  endfacet
  facet normal +0.0000000E+00 +0.0000000E+00 -1.0000000E+00
    outer loop      
      vertex   +2.5000000E+02 +1.4000000E+04 -5.0000000E+02
      vertex   +2.5000000E+02 +1.3000000E+04 -5.0000000E+02
      vertex   -2.5000000E+02 +1.3000000E+04 -5.0000000E+02
    endloop
  endfacet
  facet normal +0.0000000E+00 +0.0000000E+00 -1.0000000E+00
    outer loop      
      vertex   -2.5000000E+02 +1.2000000E+04 -5.0000000E+02
      vertex   -2.5000000E+02 +1.3000000E+04 -5.0000000E+02
      vertex   +2.5000000E+02 +1.3000000E+04 -5.0000000E+02
    endloop
  endfacet
  facet normal +0.0000000E+00 +0.0000000E+00 -1.0000000E+00
    outer loop      
      vertex   +2.5000000E+02 +1.3000000E+04 -5.0000000E+02
      vertex   +2.5000000E+02 +1.2000000E+04 -5.0000000E+02
      vertex   -2.5000000E+02 +1.2000000E+04 -5.0000000E+02
    endloop
  endfacet
  facet normal +0.0000000E+00 +0.0000000E+00 -1.0000000E+00
    outer loop      
      vertex   -2.5000000E+02 +1.1000000E+04 -5.0000000E+02
      vertex   -2.5000000E+02 +1.2000000E+04 -5.0000000E+02
      vertex   +2.5000000E+02 +1.2000000E+04 -5.0000000E+02
    endloop
  endfacet
  facet normal +0.0000000E+00 +0.0000000E+00 -1.0000000E+00
    outer loop      
      vertex   +2.5000000E+02 +1.2000000E+04 -5.0000000E+02
      vertex   +2.5000000E+02 +1.1000000E+04 -5.0000000E+02
      vertex   -2.5000000E+02 +1.1000000E+04 -5.0000000E+02
    endloop
  endfacet
  facet normal +0.0000000E+00 +0.0000000E+00 -1.0000000E+00
    outer loop      
      vertex   -2.5000000E+02 +1.0000000E+04 -5.0000000E+02
      vertex   -2.5000000E+02 +1.1000000E+04 -5.0000000E+02
      vertex   +2.5000000E+02 +1.1000000E+04 -5.0000000E+02
    endloop
  endfacet
  facet normal +0.0000000E+00 +0.0000000E+00 -1.0000000E+00
    outer loop      
      vertex   +2.5000000E+02 +1.1000000E+04 -5.0000000E+02
      vertex   +2.5000000E+02 +1.0000000E+04 -5.0000000E+02
      vertex   -2.5000000E+02 +1.0000000E+04 -5.0000000E+02
    endloop
  endfacet
  facet normal +0.0000000E+00 +0.0000000E+00 -1.0000000E+00
    outer loop      
      vertex   -2.5000000E+02 +9.0000000E+03 -5.0000000E+02
      vertex   -2.5000000E+02 +1.0000000E+04 -5.0000000E+02
      vertex   +2.5000000E+02 +1.0000000E+04 -5.0000000E+02
    endloop
  endfacet
  facet normal +0.0000000E+00 +0.0000000E+00 -1.0000000E+00
    outer loop      
      vertex   +2.5000000E+02 +1.0000000E+04 -5.0000000E+02
      vertex   +2.5000000E+02 +9.0000000E+03 -5.0000000E+02
      vertex   -2.5000000E+02 +9.0000000E+03 -5.0000000E+02
    endloop
  endfacet
  facet normal +0.0000000E+00 +0.0000000E+00 -1.0000000E+00
    outer loop      
      vertex   -2.5000000E+02 +8.0000000E+03 -5.0000000E+02
      vertex   -2.5000000E+02 +9.0000000E+03 -5.0000000E+02
      vertex   +2.5000000E+02 +9.0000000E+03 -5.0000000E+02
    endloop
  endfacet
  facet normal +0.0000000E+00 +0.0000000E+00 -1.0000000E+00
    outer loop      
      vertex   +2.5000000E+02 +9.0000000E+03 -5.0000000E+02
      vertex   +2.5000000E+02 +8.0000000E+03 -5.0000000E+02
      vertex   -2.5000000E+02 +8.0000000E+03 -5.0000000E+02
    endloop
  endfacet
  facet normal +0.0000000E+00 +0.0000000E+00 -1.0000000E+00
    outer loop      
      vertex   -2.5000000E+02 +7.0000000E+03 -5.0000000E+02
      vertex   -2.5000000E+02 +8.0000000E+03 -5.0000000E+02
      vertex   +2.5000000E+02 +8.0000000E+03 -5.0000000E+02
    endloop
  endfacet
  facet normal +0.0000000E+00 +0.0000000E+00 -1.0000000E+00
    outer loop      
      vertex   +2.5000000E+02 +8.0000000E+03 -5.0000000E+02
      vertex   +2.5000000E+02 +7.0000000E+03 -5.0000000E+02
      vertex   -2.5000000E+02 +7.0000000E+03 -5.0000000E+02
    endloop
  endfacet
  facet normal +0.0000000E+00 +0.0000000E+00 -1.0000000E+00
    outer loop      
      vertex   -2.5000000E+02 +6.0000000E+03 -5.0000000E+02
      vertex   -2.5000000E+02 +7.0000000E+03 -5.0000000E+02
      vertex   +2.5000000E+02 +7.0000000E+03 -5.0000000E+02
    endloop
  endfacet
  facet normal +0.0000000E+00 +0.0000000E+00 -1.0000000E+00
    outer loop      
      vertex   +2.5000000E+02 +7.0000000E+03 -5.0000000E+02
      vertex   +2.5000000E+02 +6.0000000E+03 -5.0000000E+02
      vertex   -2.5000000E+02 +6.0000000E+03 -5.0000000E+02
    endloop
  endfacet
  facet normal +0.0000000E+00 +0.0000000E+00 -1.0000000E+00
    outer loop      
      vertex   -2.5000000E+02 +5.0000000E+03 -5.0000000E+02
      vertex   -2.5000000E+02 +6.0000000E+03 -5.0000000E+02
      vertex   +2.5000000E+02 +6.0000000E+03 -5.0000000E+02
    endloop
  endfacet
  facet normal +0.0000000E+00 +0.0000000E+00 -1.0000000E+00
    outer loop      
      vertex   +2.5000000E+02 +6.0000000E+03 -5.0000000E+02
      vertex   +2.5000000E+02 +5.0000000E+03 -5.0000000E+02
      vertex   -2.5000000E+02 +5.0000000E+03 -5.0000000E+02
    endloop
  endfacet
  facet normal +0.0000000E+00 +0.0000000E+00 -1.0000000E+00
    outer loop      
      vertex   -2.5000000E+02 +4.0000000E+03 -5.0000000E+02
      vertex   -2.5000000E+02 +5.0000000E+03 -5.0000000E+02
      vertex   +2.5000000E+02 +5.0000000E+03 -5.0000000E+02
    endloop
  endfacet
  facet normal +0.0000000E+00 +0.0000000E+00 -1.0000000E+00
    outer loop      
      vertex   +2.5000000E+02 +5.0000000E+03 -5.0000000E+02
      vertex   +2.5000000E+02 +4.0000000E+03 -5.0000000E+02
      vertex   -2.5000000E+02 +4.0000000E+03 -5.0000000E+02
    endloop
  endfacet
  facet normal +0.0000000E+00 +0.0000000E+00 -1.0000000E+00
    outer loop      
      vertex   -2.5000000E+02 +3.0000000E+03 -5.0000000E+02
      vertex   -2.5000000E+02 +4.0000000E+03 -5.0000000E+02
      vertex   +2.5000000E+02 +4.0000000E+03 -5.0000000E+02
    endloop
  endfacet
  facet normal +0.0000000E+00 +0.0000000E+00 -1.0000000E+00
    outer loop      
      vertex   +2.5000000E+02 +4.0000000E+03 -5.0000000E+02
      vertex   +2.5000000E+02 +3.0000000E+03 -5.0000000E+02
      vertex   -2.5000000E+02 +3.0000000E+03 -5.0000000E+02
    endloop
  endfacet
  facet normal +0.0000000E+00 +0.0000000E+00 -1.0000000E+00
    outer loop      
      vertex   -2.5000000E+02 +2.0000000E+03 -5.0000000E+02
      vertex   -2.5000000E+02 +3.0000000E+03 -5.0000000E+02
      vertex   +2.5000000E+02 +3.0000000E+03 -5.0000000E+02
    endloop
  endfacet
  facet normal +0.0000000E+00 +0.0000000E+00 -1.0000000E+00
    outer loop      
      vertex   +2.5000000E+02 +3.0000000E+03 -5.0000000E+02
      vertex   +2.5000000E+02 +2.0000000E+03 -5.0000000E+02
      vertex   -2.5000000E+02 +2.0000000E+03 -5.0000000E+02
    endloop
  endfacet
  facet normal +0.0000000E+00 +0.0000000E+00 -1.0000000E+00
    outer loop      
      vertex   -2.5000000E+02 +1.0000000E+03 -5.0000000E+02
      vertex   -2.5000000E+02 +2.0000000E+03 -5.0000000E+02
      vertex   +2.5000000E+02 +2.0000000E+03 -5.0000000E+02
    endloop
  endfacet
  facet normal +0.0000000E+00 +0.0000000E+00 -1.0000000E+00
    outer loop      
      vertex   +2.5000000E+02 +2.0000000E+03 -5.0000000E+02
      vertex   +2.5000000E+02 +1.0000000E+03 -5.0000000E+02
      vertex   -2.5000000E+02 +1.0000000E+03 -5.0000000E+02
    endloop
  endfacet
  facet normal +0.0000000E+00 +0.0000000E+00 -1.0000000E+00
    outer loop      
      vertex   -2.5000000E+02 +0.0000000E+00 -5.0000000E+02
      vertex   -2.5000000E+02 +1.0000000E+03 -5.0000000E+02
      vertex   +2.5000000E+02 +1.0000000E+03 -5.0000000E+02
    endloop
  endfacet
  facet normal +0.0000000E+00 +0.0000000E+00 -1.0000000E+00
    outer loop      
      vertex   +2.5000000E+02 +1.0000000E+03 -5.0000000E+02
      vertex   +2.5000000E+02 +0.0000000E+00 -5.0000000E+02
      vertex   -2.5000000E+02 +0.0000000E+00 -5.0000000E+02
    endloop
  endfacet
  facet normal +0.0000000E+00 +0.0000000E+00 -1.0000000E+00
    outer loop      
      vertex   -2.5000000E+02 +1.9000000E+04 -5.0000000E+02
      vertex   -2.5000000E+02 +2.0000000E+04 -5.0000000E+02
      vertex   +2.5000000E+02 +2.0000000E+04 -5.0000000E+02
    endloop
  endfacet
  facet normal -1.0000000E+00 -2.8421709E-17 -1.0800249E-15
    outer loop      
      vertex   -2.5000000E+02 +2.0000000E+04 -5.0000000E+02
      vertex   -2.5000000E+02 +1.9000000E+04 -5.0000000E+02
      vertex   -2.5000000E+02 +1.9000000E+04 +5.0000000E+02
    endloop
  endfacet
  facet normal -1.0000000E+00 +0.0000000E+00 -1.0800249E-15
    outer loop      
      vertex   -2.5000000E+02 +1.8000000E+04 +5.0000000E+02
      vertex   -2.5000000E+02 +1.9000000E+04 +5.0000000E+02
      vertex   -2.5000000E+02 +1.9000000E+04 -5.0000000E+02
    endloop
  endfacet
  facet normal -1.0000000E+00 +0.0000000E+00 -1.0800249E-15
    outer loop      
      vertex   -2.5000000E+02 +1.9000000E+04 -5.0000000E+02
      vertex   -2.5000000E+02 +1.8000000E+04 -5.0000000E+02
      vertex   -2.5000000E+02 +1.8000000E+04 +5.0000000E+02
    endloop
  endfacet
  facet normal -1.0000000E+00 +0.0000000E+00 -1.0800249E-15
    outer loop      
      vertex   -2.5000000E+02 +1.7000000E+04 +5.0000000E+02
      vertex   -2.5000000E+02 +1.8000000E+04 +5.0000000E+02
      vertex   -2.5000000E+02 +1.8000000E+04 -5.0000000E+02
    endloop
  endfacet
  facet normal -1.0000000E+00 +0.0000000E+00 -1.0800249E-15
    outer loop      
      vertex   -2.5000000E+02 +1.8000000E+04 -5.0000000E+02
      vertex   -2.5000000E+02 +1.7000000E+04 -5.0000000E+02
      vertex   -2.5000000E+02 +1.7000000E+04 +5.0000000E+02
    endloop
  endfacet
  facet normal -1.0000000E+00 +0.0000000E+00 -1.0800249E-15
    outer loop      
      vertex   -2.5000000E+02 +1.6000000E+04 +5.0000000E+02
      vertex   -2.5000000E+02 +1.7000000E+04 +5.0000000E+02
      vertex   -2.5000000E+02 +1.7000000E+04 -5.0000000E+02
    endloop
  endfacet
  facet normal -1.0000000E+00 +0.0000000E+00 -1.0800249E-15
    outer loop      
      vertex   -2.5000000E+02 +1.7000000E+04 -5.0000000E+02
      vertex   -2.5000000E+02 +1.6000000E+04 -5.0000000E+02
      vertex   -2.5000000E+02 +1.6000000E+04 +5.0000000E+02
    endloop
  endfacet
  facet normal -1.0000000E+00 +0.0000000E+00 -1.0800249E-15
    outer loop      
      vertex   -2.5000000E+02 +1.5000000E+04 +5.0000000E+02
      vertex   -2.5000000E+02 +1.6000000E+04 +5.0000000E+02
      vertex   -2.5000000E+02 +1.6000000E+04 -5.0000000E+02
    endloop
  endfacet
  facet normal -1.0000000E+00 +0.0000000E+00 -1.0800249E-15
    outer loop      
      vertex   -2.5000000E+02 +1.6000000E+04 -5.0000000E+02
      vertex   -2.5000000E+02 +1.5000000E+04 -5.0000000E+02
      vertex   -2.5000000E+02 +1.5000000E+04 +5.0000000E+02
    endloop
  endfacet
  facet normal -1.0000000E+00 +0.0000000E+00 -1.0800249E-15
    outer loop      
      vertex   -2.5000000E+02 +1.4000000E+04 +5.0000000E+02
      vertex   -2.5000000E+02 +1.5000000E+04 +5.0000000E+02
      vertex   -2.5000000E+02 +1.5000000E+04 -5.0000000E+02
    endloop
  endfacet
  facet normal -1.0000000E+00 +0.0000000E+00 -1.0800249E-15
    outer loop      
      vertex   -2.5000000E+02 +1.5000000E+04 -5.0000000E+02
      vertex   -2.5000000E+02 +1.4000000E+04 -5.0000000E+02
      vertex   -2.5000000E+02 +1.4000000E+04 +5.0000000E+02
    endloop
  endfacet
  facet normal -1.0000000E+00 +0.0000000E+00 -1.0800249E-15
    outer loop      
      vertex   -2.5000000E+02 +1.3000000E+04 +5.0000000E+02
      vertex   -2.5000000E+02 +1.4000000E+04 +5.0000000E+02
      vertex   -2.5000000E+02 +1.4000000E+04 -5.0000000E+02
    endloop
  endfacet
  facet normal -1.0000000E+00 +0.0000000E+00 -1.0800249E-15
    outer loop      
      vertex   -2.5000000E+02 +1.4000000E+04 -5.0000000E+02
      vertex   -2.5000000E+02 +1.3000000E+04 -5.0000000E+02
      vertex   -2.5000000E+02 +1.3000000E+04 +5.0000000E+02
    endloop
  endfacet
  facet normal -1.0000000E+00 +0.0000000E+00 -1.0800249E-15
    outer loop      
      vertex   -2.5000000E+02 +1.2000000E+04 +5.0000000E+02
      vertex   -2.5000000E+02 +1.3000000E+04 +5.0000000E+02
      vertex   -2.5000000E+02 +1.3000000E+04 -5.0000000E+02
    endloop
  endfacet
  facet normal -1.0000000E+00 +0.0000000E+00 -1.0800249E-15
    outer loop      
      vertex   -2.5000000E+02 +1.3000000E+04 -5.0000000E+02
      vertex   -2.5000000E+02 +1.2000000E+04 -5.0000000E+02
      vertex   -2.5000000E+02 +1.2000000E+04 +5.0000000E+02
    endloop
  endfacet
  facet normal -1.0000000E+00 +0.0000000E+00 -1.0800249E-15
    outer loop      
      vertex   -2.5000000E+02 +1.1000000E+04 +5.0000000E+02
      vertex   -2.5000000E+02 +1.2000000E+04 +5.0000000E+02
      vertex   -2.5000000E+02 +1.2000000E+04 -5.0000000E+02
    endloop
  endfacet
  facet normal -1.0000000E+00 +0.0000000E+00 -1.0800249E-15
    outer loop      
      vertex   -2.5000000E+02 +1.2000000E+04 -5.0000000E+02
      vertex   -2.5000000E+02 +1.1000000E+04 -5.0000000E+02
      vertex   -2.5000000E+02 +1.1000000E+04 +5.0000000E+02
    endloop
  endfacet
  facet normal -1.0000000E+00 +0.0000000E+00 -1.0800249E-15
    outer loop      
      vertex   -2.5000000E+02 +1.0000000E+04 +5.0000000E+02
      vertex   -2.5000000E+02 +1.1000000E+04 +5.0000000E+02
      vertex   -2.5000000E+02 +1.1000000E+04 -5.0000000E+02
    endloop
  endfacet
  facet normal -1.0000000E+00 +0.0000000E+00 -1.0800249E-15
    outer loop      
      vertex   -2.5000000E+02 +1.1000000E+04 -5.0000000E+02
      vertex   -2.5000000E+02 +1.0000000E+04 -5.0000000E+02
      vertex   -2.5000000E+02 +1.0000000E+04 +5.0000000E+02
    endloop
  endfacet
  facet normal -1.0000000E+00 +0.0000000E+00 -1.0800249E-15
    outer loop      
      vertex   -2.5000000E+02 +9.0000000E+03 +5.0000000E+02
      vertex   -2.5000000E+02 +1.0000000E+04 +5.0000000E+02
      vertex   -2.5000000E+02 +1.0000000E+04 -5.0000000E+02
    endloop
  endfacet
  facet normal -1.0000000E+00 +0.0000000E+00 -1.0800249E-15
    outer loop      
      vertex   -2.5000000E+02 +1.0000000E+04 -5.0000000E+02
      vertex   -2.5000000E+02 +9.0000000E+03 -5.0000000E+02
      vertex   -2.5000000E+02 +9.0000000E+03 +5.0000000E+02
    endloop
  endfacet
  facet normal -1.0000000E+00 +0.0000000E+00 -1.0800249E-15
    outer loop      
      vertex   -2.5000000E+02 +8.0000000E+03 +5.0000000E+02
      vertex   -2.5000000E+02 +9.0000000E+03 +5.0000000E+02
      vertex   -2.5000000E+02 +9.0000000E+03 -5.0000000E+02
    endloop
  endfacet
  facet normal -1.0000000E+00 +0.0000000E+00 -1.0800249E-15
    outer loop      
      vertex   -2.5000000E+02 +9.0000000E+03 -5.0000000E+02
      vertex   -2.5000000E+02 +8.0000000E+03 -5.0000000E+02
      vertex   -2.5000000E+02 +8.0000000E+03 +5.0000000E+02
    endloop
  endfacet
  facet normal -1.0000000E+00 +0.0000000E+00 -1.0800249E-15
    outer loop      
      vertex   -2.5000000E+02 +7.0000000E+03 +5.0000000E+02
      vertex   -2.5000000E+02 +8.0000000E+03 +5.0000000E+02
      vertex   -2.5000000E+02 +8.0000000E+03 -5.0000000E+02
    endloop
  endfacet
  facet normal -1.0000000E+00 +0.0000000E+00 -1.0800249E-15
    outer loop      
      vertex   -2.5000000E+02 +8.0000000E+03 -5.0000000E+02
      vertex   -2.5000000E+02 +7.0000000E+03 -5.0000000E+02
      vertex   -2.5000000E+02 +7.0000000E+03 +5.0000000E+02
    endloop
  endfacet
  facet normal -1.0000000E+00 +0.0000000E+00 -1.0800249E-15
    outer loop      
      vertex   -2.5000000E+02 +6.0000000E+03 +5.0000000E+02
      vertex   -2.5000000E+02 +7.0000000E+03 +5.0000000E+02
      vertex   -2.5000000E+02 +7.0000000E+03 -5.0000000E+02
    endloop
  endfacet
  facet normal -1.0000000E+00 +0.0000000E+00 -1.0800249E-15
    outer loop      
      vertex   -2.5000000E+02 +7.0000000E+03 -5.0000000E+02
      vertex   -2.5000000E+02 +6.0000000E+03 -5.0000000E+02
      vertex   -2.5000000E+02 +6.0000000E+03 +5.0000000E+02
    endloop
  endfacet
  facet normal -1.0000000E+00 +0.0000000E+00 -1.0800249E-15
    outer loop      
      vertex   -2.5000000E+02 +5.0000000E+03 +5.0000000E+02
      vertex   -2.5000000E+02 +6.0000000E+03 +5.0000000E+02
      vertex   -2.5000000E+02 +6.0000000E+03 -5.0000000E+02
    endloop
  endfacet
  facet normal -1.0000000E+00 +0.0000000E+00 -1.0800249E-15
    outer loop      
      vertex   -2.5000000E+02 +6.0000000E+03 -5.0000000E+02
      vertex   -2.5000000E+02 +5.0000000E+03 -5.0000000E+02
      vertex   -2.5000000E+02 +5.0000000E+03 +5.0000000E+02
    endloop
  endfacet
  facet normal -1.0000000E+00 +0.0000000E+00 -1.0800249E-15
    outer loop      
      vertex   -2.5000000E+02 +4.0000000E+03 +5.0000000E+02
      vertex   -2.5000000E+02 +5.0000000E+03 +5.0000000E+02
      vertex   -2.5000000E+02 +5.0000000E+03 -5.0000000E+02
    endloop
  endfacet
  facet normal -1.0000000E+00 +0.0000000E+00 -1.0800249E-15
    outer loop      
      vertex   -2.5000000E+02 +5.0000000E+03 -5.0000000E+02
      vertex   -2.5000000E+02 +4.0000000E+03 -5.0000000E+02
      vertex   -2.5000000E+02 +4.0000000E+03 +5.0000000E+02
    endloop
  endfacet
  facet normal -1.0000000E+00 +0.0000000E+00 -1.0800249E-15
    outer loop      
      vertex   -2.5000000E+02 +3.0000000E+03 +5.0000000E+02
      vertex   -2.5000000E+02 +4.0000000E+03 +5.0000000E+02
      vertex   -2.5000000E+02 +4.0000000E+03 -5.0000000E+02
    endloop
  endfacet
  facet normal -1.0000000E+00 +0.0000000E+00 -1.0800249E-15
    outer loop      
      vertex   -2.5000000E+02 +4.0000000E+03 -5.0000000E+02
      vertex   -2.5000000E+02 +3.0000000E+03 -5.0000000E+02
      vertex   -2.5000000E+02 +3.0000000E+03 +5.0000000E+02
    endloop
  endfacet
  facet normal -1.0000000E+00 +0.0000000E+00 -1.0800249E-15
    outer loop      
      vertex   -2.5000000E+02 +2.0000000E+03 +5.0000000E+02
      vertex   -2.5000000E+02 +3.0000000E+03 +5.0000000E+02
      vertex   -2.5000000E+02 +3.0000000E+03 -5.0000000E+02
    endloop
  endfacet
  facet normal -1.0000000E+00 +0.0000000E+00 -1.0800249E-15
    outer loop      
      vertex   -2.5000000E+02 +3.0000000E+03 -5.0000000E+02
      vertex   -2.5000000E+02 +2.0000000E+03 -5.0000000E+02
      vertex   -2.5000000E+02 +2.0000000E+03 +5.0000000E+02
    endloop
  endfacet
  facet normal -1.0000000E+00 +0.0000000E+00 -1.0800249E-15
    outer loop      
      vertex   -2.5000000E+02 +1.0000000E+03 +5.0000000E+02
      vertex   -2.5000000E+02 +2.0000000E+03 +5.0000000E+02
      vertex   -2.5000000E+02 +2.0000000E+03 -5.0000000E+02
    endloop
  endfacet
  facet normal -1.0000000E+00 +0.0000000E+00 -1.0800249E-15
    outer loop      
      vertex   -2.5000000E+02 +2.0000000E+03 -5.0000000E+02
      vertex   -2.5000000E+02 +1.0000000E+03 -5.0000000E+02
      vertex   -2.5000000E+02 +1.0000000E+03 +5.0000000E+02
    endloop
  endfacet
  facet normal -1.0000000E-00 +0.0000000E+00 -1.0800249E-15
    outer loop      
      vertex   -2.5000000E+02 +0.0000000E+00 +5.0000000E+02
      vertex   -2.5000000E+02 +1.0000000E+03 +5.0000000E+02
      vertex   -2.5000000E+02 +1.0000000E+03 -5.0000000E+02
    endloop
  endfacet
  facet normal -1.0000000E-00 +2.8421709E-17 -1.0516032E-15
    outer loop      
      vertex   -2.5000000E+02 +1.0000000E+03 -5.0000000E+02
      vertex   -2.5000000E+02 +0.0000000E+00 -5.0000000E+02
      vertex   -2.5000000E+02 +0.0000000E+00 +5.0000000E+02
    endloop
  endfacet
  facet normal -1.0000000E+00 +0.0000000E+00 -1.0516032E-15
    outer loop      
      vertex   -2.5000000E+02 +1.9000000E+04 +5.0000000E+02
      vertex   -2.5000000E+02 +2.0000000E+04 +5.0000000E+02
      vertex   -2.5000000E+02 +2.0000000E+04 -5.0000000E+02
    endloop
  endfacet
  facet normal +0.0000000E+00 +0.0000000E+00 +1.0000000E+00
    outer loop      
      vertex   -2.5000000E+02 +2.0000000E+04 +5.0000000E+02
      vertex   -2.5000000E+02 +1.9000000E+04 +5.0000000E+02
      vertex   +2.5000000E+02 +1.9000000E+04 +5.0000000E+02
    endloop
  endfacet
  facet normal +0.0000000E+00 +0.0000000E+00 +1.0000000E+00
    outer loop      
      vertex   +2.5000000E+02 +1.8000000E+04 +5.0000000E+02
      vertex   +2.5000000E+02 +1.9000000E+04 +5.0000000E+02
      vertex   -2.5000000E+02 +1.9000000E+04 +5.0000000E+02
    endloop
  endfacet
  facet normal +0.0000000E+00 +0.0000000E+00 +1.0000000E+00
    outer loop      
      vertex   -2.5000000E+02 +1.9000000E+04 +5.0000000E+02
      vertex   -2.5000000E+02 +1.8000000E+04 +5.0000000E+02
      vertex   +2.5000000E+02 +1.8000000E+04 +5.0000000E+02
    endloop
  endfacet
  facet normal +0.0000000E+00 +0.0000000E+00 +1.0000000E+00
    outer loop      
      vertex   +2.5000000E+02 +1.7000000E+04 +5.0000000E+02
      vertex   +2.5000000E+02 +1.8000000E+04 +5.0000000E+02
      vertex   -2.5000000E+02 +1.8000000E+04 +5.0000000E+02
    endloop
  endfacet
  facet normal +0.0000000E+00 +0.0000000E+00 +1.0000000E+00
    outer loop      
      vertex   -2.5000000E+02 +1.8000000E+04 +5.0000000E+02
      vertex   -2.5000000E+02 +1.7000000E+04 +5.0000000E+02
      vertex   +2.5000000E+02 +1.7000000E+04 +5.0000000E+02
    endloop
  endfacet
  facet normal +0.0000000E+00 +0.0000000E+00 +1.0000000E+00
    outer loop      
      vertex   +2.5000000E+02 +1.6000000E+04 +5.0000000E+02
      vertex   +2.5000000E+02 +1.7000000E+04 +5.0000000E+02
      vertex   -2.5000000E+02 +1.7000000E+04 +5.0000000E+02
    endloop
  endfacet
  facet normal +0.0000000E+00 +0.0000000E+00 +1.0000000E+00
    outer loop      
      vertex   -2.5000000E+02 +1.7000000E+04 +5.0000000E+02
      vertex   -2.5000000E+02 +1.6000000E+04 +5.0000000E+02
      vertex   +2.5000000E+02 +1.6000000E+04 +5.0000000E+02
    endloop
  endfacet
  facet normal +0.0000000E+00 +0.0000000E+00 +1.0000000E+00
    outer loop      
      vertex   +2.5000000E+02 +1.5000000E+04 +5.0000000E+02
      vertex   +2.5000000E+02 +1.6000000E+04 +5.0000000E+02
      vertex   -2.5000000E+02 +1.6000000E+04 +5.0000000E+02
    endloop
  endfacet
  facet normal +0.0000000E+00 +0.0000000E+00 +1.0000000E+00
    outer loop      
      vertex   -2.5000000E+02 +1.6000000E+04 +5.0000000E+02
      vertex   -2.5000000E+02 +1.5000000E+04 +5.0000000E+02
      vertex   +2.5000000E+02 +1.5000000E+04 +5.0000000E+02
    endloop
  endfacet
  facet normal +0.0000000E+00 +0.0000000E+00 +1.0000000E+00
    outer loop      
      vertex   +2.5000000E+02 +1.4000000E+04 +5.0000000E+02
      vertex   +2.5000000E+02 +1.5000000E+04 +5.0000000E+02
      vertex   -2.5000000E+02 +1.5000000E+04 +5.0000000E+02
    endloop
  endfacet
  facet normal +0.0000000E+00 +0.0000000E+00 +1.0000000E+00
    outer loop      
      vertex   -2.5000000E+02 +1.5000000E+04 +5.0000000E+02
      vertex   -2.5000000E+02 +1.4000000E+04 +5.0000000E+02
      vertex   +2.5000000E+02 +1.4000000E+04 +5.0000000E+02
    endloop
  endfacet
  facet normal +0.0000000E+00 +0.0000000E+00 +1.0000000E+00
    outer loop      
      vertex   +2.5000000E+02 +1.3000000E+04 +5.0000000E+02
      vertex   +2.5000000E+02 +1.4000000E+04 +5.0000000E+02
      vertex   -2.5000000E+02 +1.4000000E+04 +5.0000000E+02
    endloop
  endfacet
  facet normal +0.0000000E+00 +0.0000000E+00 +1.0000000E+00
    outer loop      
      vertex   -2.5000000E+02 +1.4000000E+04 +5.0000000E+02
      vertex   -2.5000000E+02 +1.3000000E+04 +5.0000000E+02
      vertex   +2.5000000E+02 +1.3000000E+04 +5.0000000E+02
    endloop
  endfacet
  facet normal +0.0000000E+00 +0.0000000E+00 +1.0000000E+00
    outer loop      
      vertex   +2.5000000E+02 +1.2000000E+04 +5.0000000E+02
      vertex   +2.5000000E+02 +1.3000000E+04 +5.0000000E+02
      vertex   -2.5000000E+02 +1.3000000E+04 +5.0000000E+02
    endloop
  endfacet
  facet normal +0.0000000E+00 +0.0000000E+00 +1.0000000E+00
    outer loop      
      vertex   -2.5000000E+02 +1.3000000E+04 +5.0000000E+02
      vertex   -2.5000000E+02 +1.2000000E+04 +5.0000000E+02
      vertex   +2.5000000E+02 +1.2000000E+04 +5.0000000E+02
    endloop
  endfacet
  facet normal +0.0000000E+00 +0.0000000E+00 +1.0000000E+00
    outer loop      
      vertex   +2.5000000E+02 +1.1000000E+04 +5.0000000E+02
      vertex   +2.5000000E+02 +1.2000000E+04 +5.0000000E+02
      vertex   -2.5000000E+02 +1.2000000E+04 +5.0000000E+02
    endloop
  endfacet
  facet normal +0.0000000E+00 +0.0000000E+00 +1.0000000E+00
    outer loop      
      vertex   -2.5000000E+02 +1.2000000E+04 +5.0000000E+02
      vertex   -2.5000000E+02 +1.1000000E+04 +5.0000000E+02
      vertex   +2.5000000E+02 +1.1000000E+04 +5.0000000E+02
    endloop
  endfacet
  facet normal +0.0000000E+00 +0.0000000E+00 +1.0000000E+00
    outer loop      
      vertex   +2.5000000E+02 +1.0000000E+04 +5.0000000E+02
      vertex   +2.5000000E+02 +1.1000000E+04 +5.0000000E+02
      vertex   -2.5000000E+02 +1.1000000E+04 +5.0000000E+02
    endloop
  endfacet
  facet normal +0.0000000E+00 +0.0000000E+00 +1.0000000E+00
    outer loop      
      vertex   -2.5000000E+02 +1.1000000E+04 +5.0000000E+02
      vertex   -2.5000000E+02 +1.0000000E+04 +5.0000000E+02
      vertex   +2.5000000E+02 +1.0000000E+04 +5.0000000E+02
    endloop
  endfacet
  facet normal +0.0000000E+00 +0.0000000E+00 +1.0000000E+00
    outer loop      
      vertex   +2.5000000E+02 +9.0000000E+03 +5.0000000E+02
      vertex   +2.5000000E+02 +1.0000000E+04 +5.0000000E+02
      vertex   -2.5000000E+02 +1.0000000E+04 +5.0000000E+02
    endloop
  endfacet
  facet normal +0.0000000E+00 +0.0000000E+00 +1.0000000E+00
    outer loop      
      vertex   -2.5000000E+02 +1.0000000E+04 +5.0000000E+02
      vertex   -2.5000000E+02 +9.0000000E+03 +5.0000000E+02
      vertex   +2.5000000E+02 +9.0000000E+03 +5.0000000E+02
    endloop
  endfacet
  facet normal +0.0000000E+00 +0.0000000E+00 +1.0000000E+00
    outer loop      
      vertex   +2.5000000E+02 +8.0000000E+03 +5.0000000E+02
      vertex   +2.5000000E+02 +9.0000000E+03 +5.0000000E+02
      vertex   -2.5000000E+02 +9.0000000E+03 +5.0000000E+02
    endloop
  endfacet
  facet normal +0.0000000E+00 +0.0000000E+00 +1.0000000E+00
    outer loop      
      vertex   -2.5000000E+02 +9.0000000E+03 +5.0000000E+02
      vertex   -2.5000000E+02 +8.0000000E+03 +5.0000000E+02
      vertex   +2.5000000E+02 +8.0000000E+03 +5.0000000E+02
    endloop
  endfacet
  facet normal +0.0000000E+00 +0.0000000E+00 +1.0000000E+00
    outer loop      
      vertex   +2.5000000E+02 +7.0000000E+03 +5.0000000E+02
      vertex   +2.5000000E+02 +8.0000000E+03 +5.0000000E+02
      vertex   -2.5000000E+02 +8.0000000E+03 +5.0000000E+02
    endloop
  endfacet
  facet normal +0.0000000E+00 +0.0000000E+00 +1.0000000E+00
    outer loop      
      vertex   -2.5000000E+02 +8.0000000E+03 +5.0000000E+02
      vertex   -2.5000000E+02 +7.0000000E+03 +5.0000000E+02
      vertex   +2.5000000E+02 +7.0000000E+03 +5.0000000E+02
    endloop
  endfacet
  facet normal +0.0000000E+00 +0.0000000E+00 +1.0000000E+00
    outer loop      
      vertex   +2.5000000E+02 +6.0000000E+03 +5.0000000E+02
      vertex   +2.5000000E+02 +7.0000000E+03 +5.0000000E+02
      vertex   -2.5000000E+02 +7.0000000E+03 +5.0000000E+02
    endloop
  endfacet
  facet normal +0.0000000E+00 +0.0000000E+00 +1.0000000E+00
    outer loop      
      vertex   -2.5000000E+02 +7.0000000E+03 +5.0000000E+02
      vertex   -2.5000000E+02 +6.0000000E+03 +5.0000000E+02
      vertex   +2.5000000E+02 +6.0000000E+03 +5.0000000E+02
    endloop
  endfacet
  facet normal +0.0000000E+00 +0.0000000E+00 +1.0000000E+00
    outer loop      
      vertex   +2.5000000E+02 +5.0000000E+03 +5.0000000E+02
      vertex   +2.5000000E+02 +6.0000000E+03 +5.0000000E+02
      vertex   -2.5000000E+02 +6.0000000E+03 +5.0000000E+02
    endloop
  endfacet
  facet normal +0.0000000E+00 +0.0000000E+00 +1.0000000E+00
    outer loop      
      vertex   -2.5000000E+02 +6.0000000E+03 +5.0000000E+02
      vertex   -2.5000000E+02 +5.0000000E+03 +5.0000000E+02
      vertex   +2.5000000E+02 +5.0000000E+03 +5.0000000E+02
    endloop
  endfacet
  facet normal +0.0000000E+00 +0.0000000E+00 +1.0000000E+00
    outer loop      
      vertex   +2.5000000E+02 +4.0000000E+03 +5.0000000E+02
      vertex   +2.5000000E+02 +5.0000000E+03 +5.0000000E+02
      vertex   -2.5000000E+02 +5.0000000E+03 +5.0000000E+02
    endloop
  endfacet
  facet normal +0.0000000E+00 +0.0000000E+00 +1.0000000E+00
    outer loop      
      vertex   -2.5000000E+02 +5.0000000E+03 +5.0000000E+02
      vertex   -2.5000000E+02 +4.0000000E+03 +5.0000000E+02
      vertex   +2.5000000E+02 +4.0000000E+03 +5.0000000E+02
    endloop
  endfacet
  facet normal +0.0000000E+00 +0.0000000E+00 +1.0000000E+00
    outer loop      
      vertex   +2.5000000E+02 +3.0000000E+03 +5.0000000E+02
      vertex   +2.5000000E+02 +4.0000000E+03 +5.0000000E+02
      vertex   -2.5000000E+02 +4.0000000E+03 +5.0000000E+02
    endloop
  endfacet
  facet normal +0.0000000E+00 +0.0000000E+00 +1.0000000E+00
    outer loop      
      vertex   -2.5000000E+02 +4.0000000E+03 +5.0000000E+02
      vertex   -2.5000000E+02 +3.0000000E+03 +5.0000000E+02
      vertex   +2.5000000E+02 +3.0000000E+03 +5.0000000E+02
    endloop
  endfacet
  facet normal +0.0000000E+00 +0.0000000E+00 +1.0000000E+00
    outer loop      
      vertex   +2.5000000E+02 +2.0000000E+03 +5.0000000E+02
      vertex   +2.5000000E+02 +3.0000000E+03 +5.0000000E+02
      vertex   -2.5000000E+02 +3.0000000E+03 +5.0000000E+02
    endloop
  endfacet
  facet normal +0.0000000E+00 +0.0000000E+00 +1.0000000E+00
    outer loop      
      vertex   -2.5000000E+02 +3.0000000E+03 +5.0000000E+02
      vertex   -2.5000000E+02 +2.0000000E+03 +5.0000000E+02
      vertex   +2.5000000E+02 +2.0000000E+03 +5.0000000E+02
    endloop
  endfacet
  facet normal +0.0000000E+00 +0.0000000E+00 +1.0000000E+00
    outer loop      
      vertex   +2.5000000E+02 +1.0000000E+03 +5.0000000E+02
      vertex   +2.5000000E+02 +2.0000000E+03 +5.0000000E+02
      vertex   -2.5000000E+02 +2.0000000E+03 +5.0000000E+02
    endloop
  endfacet
  facet normal +0.0000000E+00 +0.0000000E+00 +1.0000000E+00
    outer loop      
      vertex   -2.5000000E+02 +2.0000000E+03 +5.0000000E+02
      vertex   -2.5000000E+02 +1.0000000E+03 +5.0000000E+02
      vertex   +2.5000000E+02 +1.0000000E+03 +5.0000000E+02
    endloop
  endfacet
  facet normal +0.0000000E+00 +0.0000000E+00 +1.0000000E+00
    outer loop      
      vertex   +2.5000000E+02 +0.0000000E+00 +5.0000000E+02
      vertex   +2.5000000E+02 +1.0000000E+03 +5.0000000E+02
      vertex   -2.5000000E+02 +1.0000000E+03 +5.0000000E+02
    endloop
  endfacet
  facet normal +0.0000000E+00 +0.0000000E+00 +1.0000000E+00
    outer loop      
      vertex   -2.5000000E+02 +1.0000000E+03 +5.0000000E+02
      vertex   -2.5000000E+02 +0.0000000E+00 +5.0000000E+02
      vertex   +2.5000000E+02 +0.0000000E+00 +5.0000000E+02
    endloop
  endfacet
  facet normal +0.0000000E+00 +0.0000000E+00 +1.0000000E+00
    outer loop      
      vertex   +2.5000000E+02 +1.9000000E+04 +5.0000000E+02
      vertex   +2.5000000E+02 +2.0000000E+04 +5.0000000E+02
      vertex   -2.5000000E+02 +2.0000000E+04 +5.0000000E+02
    endloop
  endfacet
  facet normal +0.0000000E+00 +1.0000000E+00 +0.0000000E+00
    outer loop      
      vertex   -2.5000000E+02 +2.0000000E+04 -5.0000000E+02
      vertex   -2.5000000E+02 +2.0000000E+04 +5.0000000E+02
      vertex   +2.5000000E+02 +2.0000000E+04 +5.0000000E+02
    endloop
  endfacet
  facet normal +0.0000000E+00 +1.0000000E+00 +0.0000000E+00
    outer loop      
      vertex   +2.5000000E+02 +2.0000000E+04 +5.0000000E+02
      vertex   +2.5000000E+02 +2.0000000E+04 -5.0000000E+02
      vertex   -2.5000000E+02 +2.0000000E+04 -5.0000000E+02
    endloop
  endfacet
  facet normal +0.0000000E+00 -1.0000000E+00 +0.0000000E+00
    outer loop      
      vertex   -2.5000000E+02 +0.0000000E+00 -5.0000000E+02
      vertex   +2.5000000E+02 +0.0000000E+00 -5.0000000E+02
      vertex   +2.5000000E+02 +0.0000000E+00 +5.0000000E+02
    endloop
  endfacet
  facet normal +0.0000000E+00 -1.0000000E+00 +0.0000000E+00
    outer loop      
      vertex   +2.5000000E+02 +0.0000000E+00 +5.0000000E+02
      vertex   -2.5000000E+02 +0.0000000E+00 +5.0000000E+02
      vertex   -2.5000000E+02 +0.0000000E+00 -5.0000000E+02
    endloop
  endfacet
endsolid
