solid
  facet normal +1.0000000E-00 +0.0000000E+00 +1.1842378E-15
    outer loop      
      vertex   +2.5000000E+01 +5.0000000E+02 +1.5000000E+01
      vertex   +2.5000000E+01 +0.0000000E+00 +1.5000000E+01
      vertex   +2.5000000E+01 +0.0000000E+00 -1.5000000E+01
    endloop
  endfacet
  facet normal +1.0000000E-00 +0.0000000E+00 +1.1842378E-15
    outer loop      
      vertex   +2.5000000E+01 +0.0000000E+00 -1.5000000E+01
      vertex   +2.5000000E+01 +5.0000000E+02 -1.5000000E+01
      vertex   +2.5000000E+01 +5.0000000E+02 +1.5000000E+01
    endloop
  endfacet
  facet normal +0.0000000E+00 +0.0000000E+00 -1.0000000E+00
    outer loop      
      vertex   +2.5000000E+01 +5.0000000E+02 -1.5000000E+01
      vertex   +2.5000000E+01 +0.0000000E+00 -1.5000000E+01
      vertex   -2.5000000E+01 +0.0000000E+00 -1.5000000E+01
    endloop
  endfacet
  facet normal +0.0000000E+00 +0.0000000E+00 -1.0000000E+00
    outer loop      
      vertex   -2.5000000E+01 +0.0000000E+00 -1.5000000E+01
      vertex   -2.5000000E+01 +5.0000000E+02 -1.5000000E+01
      vertex   +2.5000000E+01 +5.0000000E+02 -1.5000000E+01
    endloop
  endfacet
  facet normal -1.0000000E-00 +0.0000000E+00 -8.2896652E-15
    outer loop      
      vertex   -2.5000000E+01 +5.0000000E+02 -1.5000000E+01
      vertex   -2.5000000E+01 +0.0000000E+00 -1.5000000E+01
      vertex   -2.5000000E+01 +0.0000000E+00 +1.5000000E+01
    endloop
  endfacet
  facet normal -1.0000000E-00 +0.0000000E+00 -8.2896652E-15
    outer loop      
      vertex   -2.5000000E+01 +0.0000000E+00 +1.5000000E+01
      vertex   -2.5000000E+01 +5.0000000E+02 +1.5000000E+01
      vertex   -2.5000000E+01 +5.0000000E+02 -1.5000000E+01
    endloop
  endfacet
  facet normal +0.0000000E+00 +0.0000000E+00 +1.0000000E+00
    outer loop      
      vertex   -2.5000000E+01 +5.0000000E+02 +1.5000000E+01
      vertex   -2.5000000E+01 +0.0000000E+00 +1.5000000E+01
      vertex   +2.5000000E+01 +0.0000000E+00 +1.5000000E+01
    endloop
  endfacet
  facet normal +0.0000000E+00 +0.0000000E+00 +1.0000000E+00
    outer loop      
      vertex   +2.5000000E+01 +0.0000000E+00 +1.5000000E+01
      vertex   +2.5000000E+01 +5.0000000E+02 +1.5000000E+01
      vertex   -2.5000000E+01 +5.0000000E+02 +1.5000000E+01
    endloop
  endfacet
  facet normal +0.0000000E+00 +1.0000000E+00 +0.0000000E+00
    outer loop      
      vertex   +2.5000000E+01 +5.0000000E+02 +1.5000000E+01
      vertex   +2.5000000E+01 +5.0000000E+02 -1.5000000E+01
      vertex   -2.5000000E+01 +5.0000000E+02 -1.5000000E+01
    endloop
  endfacet
  facet normal +0.0000000E+00 +1.0000000E+00 +0.0000000E+00
    outer loop      
      vertex   -2.5000000E+01 +5.0000000E+02 -1.5000000E+01
      vertex   -2.5000000E+01 +5.0000000E+02 +1.5000000E+01
      vertex   +2.5000000E+01 +5.0000000E+02 +1.5000000E+01
    endloop
  endfacet
  facet normal +0.0000000E+00 -1.0000000E+00 +0.0000000E+00
    outer loop      
      vertex   +2.5000000E+01 +0.0000000E+00 +1.5000000E+01
      vertex   -2.5000000E+01 +0.0000000E+00 +1.5000000E+01
      vertex   -2.5000000E+01 +0.0000000E+00 -1.5000000E+01
    endloop
  endfacet
  facet normal +0.0000000E+00 -1.0000000E+00 +0.0000000E+00
    outer loop      
      vertex   -2.5000000E+01 +0.0000000E+00 -1.5000000E+01
      vertex   +2.5000000E+01 +0.0000000E+00 -1.5000000E+01
      vertex   +2.5000000E+01 +0.0000000E+00 +1.5000000E+01
    endloop
  endfacet
endsolid
